<?xml version="1.0" encoding="utf-8"?>
<!-- Generator: Adobe Illustrator 24.0.2, SVG Export Plug-In . SVG Version: 6.00 Build 0)  -->
<svg version="1.1" id="Layer_1" xmlns="http://www.w3.org/2000/svg" xmlns:xlink="http://www.w3.org/1999/xlink" x="0px" y="0px"
	 width="479.1px" height="480.6px" viewBox="0 0 479.1 480.6" style="enable-background:new 0 0 479.1 480.6;" xml:space="preserve"
	>
<style type="text/css">
	.st0{fill-rule:evenodd;clip-rule:evenodd;fill:#FFFFFF;}
</style>
<g>
	<path class="st0" d="M192.8,70c3.6,0,4.5,6.3,0,7.2c-2.4,0-4.8,0-7.2,0c0-3.6,2.9-4.3,3.6-7.2C190.4,70,191.6,70,192.8,70z"/>
	<path class="st0" d="M304.3,116.7c1.2,0,2.4,0,3.6,0c4.8,0,9.6,0,14.4,0c0,1.2,0,2.4,0,3.6C317.1,118.4,303.7,124.5,304.3,116.7z"
		/>
	<path class="st0" d="M271.9,138.3c-0.6-7.8,12.8-1.6,18-3.6c0,1.2,0,2.4,0,3.6C283.9,138.3,277.9,138.3,271.9,138.3z"/>
	<path class="st0" d="M289.9,138.3c0-1.2,0-2.4,0-3.6c8.4,0,16.8,0,25.2,0c0,1.2,0,2.4,0,3.6C306.7,138.3,298.3,138.3,289.9,138.3z"
		/>
	<path class="st0" d="M315.1,138.3c0-1.2,0-2.4,0-3.6c6.3,2.1,21.1-4.3,21.6,3.6c-1.2,0-2.4,0-3.6,0
		C327.1,138.3,321.1,138.3,315.1,138.3z"/>
	<path class="st0" d="M142.4,159.9c0.8-2.8,0.1-7.1,3.6-7.2c1.2,8.4,5.7,13.5,3.6,25.2c-5.9-0.1-2-10-7.2-10.8
		C142.4,164.7,142.4,162.3,142.4,159.9z"/>
	<path class="st0" d="M156.8,163.5c5.9-0.6,5.9,22.2,0,21.6c0-2.4,0-4.8,0-7.2C156.8,173.1,156.8,168.3,156.8,163.5z"/>
	<path class="st0" d="M59.7,170.7c0-1.2,0-2.4,0-3.6c1.2,0,2.4,0,3.6,0c-3,10.2,5.1,9.3,3.6,18c-2.4,0-4.8,0-7.2,0
		C59.7,180.3,59.7,175.5,59.7,170.7z"/>
	<path class="st0" d="M156.8,177.9c0,2.4,0,4.8,0,7.2c0,4.8,0,9.6,0,14.4c-1.2,0-2.4,0-3.6,0C155.3,193.1,148.9,178.3,156.8,177.9z"
		/>
	<path class="st0" d="M135.2,195.9c0-1.2,0-2.4,0-3.6c1.2,0,2.4,0,3.6,0c0,12,0,24,0,36C130.7,224.4,137.5,205.6,135.2,195.9z"/>
	<path class="st0" d="M74.1,195.9c0,10.8,0,21.6,0,32.4C68.1,225.5,68.1,198.6,74.1,195.9z"/>
	<path class="st0" d="M153.2,199.5c1.2,0,2.4,0,3.6,0c0,4.8,0,9.6,0,14.4c-1.2,0-2.4,0-3.6,0C153.2,209,153.2,204.3,153.2,199.5z"/>
	<path class="st0" d="M59.7,278.6c-6-16.9-6-58.7,0-75.5C59.7,228.2,59.7,253.4,59.7,278.6z"/>
	<path class="st0" d="M271.9,206.6c0-1.2,0-2.4,0-3.6c9.6,0,19.2,0,28.8,0c0,1.2,0,2.4,0,3.6C291.1,206.6,281.5,206.6,271.9,206.6z"
		/>
	<path class="st0" d="M300.7,206.6c0-1.2,0-2.4,0-3.6c8.6,2.2,26.1-4.5,28.8,3.6c-2.4,0-4.8,0-7.2,0
		C315.1,206.6,307.9,206.6,300.7,206.6z"/>
	<path class="st0" d="M322.3,206.6c2.4,0,4.8,0,7.2,0c2.4,0,4.8,0,7.2,0c0,1.2,0,2.4,0,3.6C331.3,209.6,323.4,211.5,322.3,206.6z"/>
	<path class="st0" d="M336.7,210.2c0-1.2,0-2.4,0-3.6c6.3,2.1,21.1-4.3,21.6,3.6c-1.2,0-2.4,0-3.6,0
		C348.7,210.2,342.7,210.2,336.7,210.2z"/>
	<path class="st0" d="M30.9,210.2c0,16.8,0,33.6,0,50.4C24.9,252.1,24.9,218.8,30.9,210.2z"/>
	<path class="st0" d="M354.7,210.2c1.2,0,2.4,0,3.6,0c5.4,0.6,13.3-1.3,14.4,3.6C367.4,211.9,354.1,218,354.7,210.2z"/>
	<path class="st0" d="M153.2,213.8c1.2,0,2.4,0,3.6,0c0,1.2,0,2.4,0,3.6c0,7.2,0,14.4,0,21.6C148.8,237.5,155.4,221.3,153.2,213.8z"
		/>
	<path class="st0" d="M376.2,213.8c3.6,0,7.2,0,10.8,0c0.8,2.8,3,4.2,7.2,3.6c-0.1,5.9-10,2-10.8,7.2c-6.8,0.8-7.9-4.1-14.4-3.6
		C369.1,216.3,375.4,217.8,376.2,213.8z"/>
	<path class="st0" d="M336.7,228.2c0-1.2,0-2.4,0-3.6c5.4,0.6,13.3-1.3,14.4,3.6c-1.2,0-2.4,0-3.6,0
		C343.9,228.2,340.3,228.2,336.7,228.2z"/>
	<path class="st0" d="M250.3,231.8c0,4.8,0,9.6,0,14.4C244.5,248.8,244.5,229.3,250.3,231.8z"/>
	<path class="st0" d="M74.1,242.6c5.3,0.7,3.3,8.7,3.6,14.4C72.4,256.3,74.4,248.3,74.1,242.6z"/>
	<path class="st0" d="M12.9,249.8c9-1.4,10.6,22.5,3.6,25.2c0-1.2,0-2.4,0-3.6C19.1,260.4,10.3,260.8,12.9,249.8z"/>
	<path class="st0" d="M232.4,257c7.8-0.6,1.6,12.8,3.6,18C228.2,275.6,234.3,262.2,232.4,257z"/>
	<path class="st0" d="M138.8,260.6c7.8-0.6,1.6,12.8,3.6,18C134.6,279.2,140.8,265.8,138.8,260.6z"/>
	<path class="st0" d="M16.5,282.2c5.3,0.7,3.3,8.7,3.6,14.4C14.8,295.9,16.8,287.9,16.5,282.2z"/>
	<path class="st0" d="M419.4,289.4c-1.2,0-2.4,0-3.6,0c-0.1-5.9-10-2-10.8-7.2C411.4,283,423,278.6,419.4,289.4z"/>
	<path class="st0" d="M387,289.4c1.2,0,2.4,0,3.6,0c3.6,0,7.2,0,10.8,0c0,1.2,0,2.4,0,3.6C396,292.4,388.2,294.3,387,289.4z"/>
	<path class="st0" d="M311.5,296.6c4.8,0,9.6,0,14.4,0c-0.8,2.8-3,4.2-7.2,3.6c0.1,5.9,10,2,10.8,7.2c-15.6,0-31.2,0-46.8,0
		c-1.2,0-2.4,0-3.6,0c0-1.2,0-2.4,0-3.6c4.2-0.6,10.2,0.6,10.8-3.6C296.2,298.1,311.1,304.5,311.5,296.6z"/>
	<path class="st0" d="M192.8,465.6c5.4,0.6,13.3-1.3,14.4,3.6c-7.2,6-4.6-0.3-14.4,0C192.8,468,192.8,466.8,192.8,465.6z"/>
	<path class="st0" d="M232.4,469.2c0-1.2,0-2.4,0-3.6c6,0,12,0,18,0c0,1.2,0,2.4,0,3.6C244.3,469.2,238.4,469.2,232.4,469.2z"/>
	<path class="st0" d="M156.8,23.2c3-5.3,11.6-5.2,18-7.2C171.7,21.3,165.8,23.7,156.8,23.2z"/>
	<path class="st0" d="M135.2,34c2.5-7.1,9.6-9.6,18-10.8C149.9,29.5,140.6,29.8,135.2,34z"/>
	<path class="st0" d="M189.2,12.4c0-1.2,0-2.4,0-3.6c2.4,0,4.8,0,7.2,0c2.2,3.4,8.4,13.3-3.6,10.8c-0.7-3.1,1.4-3.4,3.6-3.6
		C196.3,12.5,192,13.2,189.2,12.4z"/>
	<path class="st0" d="M81.3,87.9c-1.3,0-8.9,5.2-7.2,7.2c-13.8-16.6,84.1-71.2,115.1-75.5c-19.9,15.6-49.5,25.3-72,46.8
		c22.5-21-8.3-12.4-14.4,3.6c-1.2,0-2.4,0-3.6,0c-6.3,3.2-11.1,8-14.4,14.4C81.8,83.7,81.5,85.8,81.3,87.9z"/>
	<path class="st0" d="M174.8,16c6.3,0.3,11.2-0.8,14.4-3.6c2.8,0.8,7.1,0.1,7.2,3.6c-2.2,0.2-4.3,0.5-3.6,3.6c-1.2,0-2.4,0-3.6,0
		c-31,4.3-128.9,58.9-115.1,75.5c-1.7-2,5.9-7.2,7.2-7.2c-20.8,15.5-33.1,57.6-50.4,64.7c-1.9,37.1-15,105.3,0,151.1
		c-2.9-0.7-3.6-3.6-7.2-3.6c-2.2-0.2-4.3-0.5-3.6-3.6c-0.3-5.7,1.7-13.7-3.6-14.4c0-2.4,0-4.8,0-7.2c7-2.7,5.4-26.6-3.6-25.2
		c0-8.4,0-16.8,0-25.2c0-4.8,0-9.6,0-14.4c10-12.8,11-34.6,14.4-54c0-1.2,0-2.4,0-3.6c6.3-3.3,6.6-12.6,10.8-18
		c1.1-4.9,5.1-6.9,3.6-14.4c7.4-1,7.2-9.6,10.8-14.4c0-1.2,0-2.4,0-3.6c2.9-0.7,3.6-3.6,7.2-3.6c5.7,6.7,13.4-15.1,18-21.6
		c-3.2,1.6-6.4,3.2-7.2,7.2c-1.2,0-2.4,0-3.6,0c1.3-4.7,6.3-5.7,7.2-10.8c1.2,0,2.4,0,3.6,0c14.3-6,23.6-17.2,32.4-28.8
		c1.2,0,2.4,0,3.6,0c5.4-4.2,14.7-4.5,18-10.8c1.2,0,2.4,0,3.6,0c5.4-4.2,14.7-4.5,18-10.8c1.2,0,2.4,0,3.6,0
		C165.8,23.7,171.7,21.3,174.8,16z"/>
	<path class="st0" d="M113.6,44.8c2.5-7.1,9.6-9.6,18-10.8C128.4,40.3,119,40.6,113.6,44.8z"/>
	<path class="st0" d="M167.6,131.1c3.5-15.7,12.5-25.9,18-39.6c1.2,0,2.4,0,3.6,0C184.5,104.9,174.4,131.7,167.6,131.1z"/>
	<path class="st0" d="M174.8,73.6c5.7-8.7,12.9-15.9,21.6-21.6c4.8,5.3,7.3,28.5-3.6,28.8c0-1.2,0-2.4,0-3.6c4.5-0.9,3.6-7.2,0-7.2
		c0-1.2,0-2.4,0-3.6c4.2-0.6,3-6.6,3.6-10.8C186.9,59.3,184.3,69.8,174.8,73.6z"/>
	<path class="st0" d="M160.4,102.3c2.8-10.4,5.7-20.7,14.4-25.2c1,5.8-3.4,6.2-3.6,10.8c-3.4,2.6-5.4,6.5-7.2,10.8
		c0,1.2,0,2.4,0,3.6C162.8,102.3,161.6,102.3,160.4,102.3z"/>
	<path class="st0" d="M92.1,127.5c1.8-15,12.6-21,14.4-36c8.3-1,8.3-9.6,3.6-14.4c0-1.2,0-2.4,0-3.6c2.9-0.7,3.6-3.6,7.2-3.6
		C116.2,94.2,100.2,122.3,92.1,127.5z"/>
	<path class="st0" d="M77.7,73.6c7.6-12.8,22.1-18.7,32.4-28.8C101.2,56.4,92,67.5,77.7,73.6z"/>
	<path class="st0" d="M257.5,95.1c10.5-14.7,18.5-31.8,39.6-36c0,3.6,2.9,4.3,3.6,7.2c-8.6,15.4-18.3,29.6-25.2,46.8
		c8.4,0,16.8,0,25.2,0c2.4,0,4.8,0,7.2,0c0,1.2,0,2.4,0,3.6c-1.2,0-2.4,0-3.6,0c-12,0-24,0-36,0c3.1-11.2,9.8-19,14.4-28.8
		c10.2-14.1-13,3.7-14.4,10.8c0,1.2,0,2.4,0,3.6c-1.2,0-2.4,0-3.6,0c-6,0,18-29.1,28.8-36C279.8,60,270.2,88.5,257.5,95.1z"/>
	<path class="st0" d="M102.9,70c6-16,36.9-24.5,14.4-3.6c0,1.2,0,2.4,0,3.6c-3.6,0-4.3,2.9-7.2,3.6c-2.6-9.8,7.2-7.2,7.2-14.4
		C109.9,60.2,110.2,68.9,102.9,70z"/>
	<path class="st0" d="M84.9,84.3C88.1,78,92.9,73.2,99.3,70C96,76.3,91.2,81.1,84.9,84.3z"/>
	<path class="st0" d="M174.8,73.6c9.5-3.7,12.1-14.3,21.6-18c-0.6,4.2,0.6,10.2-3.6,10.8c-4.5-8.8-10.5,10.8-18,10.8
		C174.8,76,174.8,74.8,174.8,73.6z"/>
	<path class="st0" d="M102.9,70c7.3-1.1,7.1-9.7,14.4-10.8c0,7.1-9.8,4.6-7.2,14.4c0,1.2,0,2.4,0,3.6c-4.9,3.5-7.2,9.6-10.8,14.4
		c3.2-1.6,6.4-3.2,7.2-7.2c5.2,1.6-0.4,3.2,0,7.2c-1.8,15-12.6,21-14.4,36c-5.5,11.3-8.7,24.9-14.4,36c-3,9-4.7,19.3-3.6,32.4
		c-5.9,2.7-5.9,29.6,0,32.4c0,4.8,0,9.6,0,14.4c0.3,5.7-1.7,13.7,3.6,14.4c0,24,8.1,39.8,14.4,57.6c12.3,47.6,33.2,86.7,97.1,82.7
		c-7.6-21.2-17.2-40.4-28.8-57.6c0-1.2,0-2.4,0-3.6c-0.5-6.7-2.4-12-7.2-14.4c-0.2-17.8-10.6-25.4-10.8-43.2c-2-5.2,4.2-18.6-3.6-18
		c0-10.8,0-21.6,0-32.4c0-12,0-24,0-36c-1.8-11.4,6.5-12.7,3.6-25.2c5.2,0.8,1.3,10.7,7.2,10.8c2.1-11.7-2.4-16.7-3.6-25.2
		c1.1-4.9,5.1-6.9,3.6-14.4c-0.5-6.4,4.4-7.6,3.6-14.4c4.2-0.6,3.9-5.7,3.6-10.8c11.3-7.4,4.7,2.5,3.6,10.8
		c3.9-2.9,17-24.1,3.6-21.6c0-1.2,0-2.4,0-3.6c7.3-6.3,7.1,2.7,14.4-3.6c0-10.1-9.8,8.6-7.2-7.2c0.2-4.6,4.6-5,3.6-10.8
		c7.5,0,13.5-19.6,18-10.8c0,1.2,0,2.4,0,3.6c-1.2,0-2.4,0-3.6,0c-0.7,2.9-3.6,3.6-3.6,7.2c2.4,0,4.8,0,7.2,0c0,1.2,0,2.4,0,3.6
		c-7.3,6.3-7.1-2.7-14.4,3.6c0,10.1,9.8-8.6,7.2,7.2c-5.5,13.7-14.5,23.9-18,39.6c-3.7,10.7-8.8,20-10.8,32.4c0,4.8,0,9.6,0,14.4
		c-7.9,0.4-1.5,15.3-3.6,21.6c0,4.8,0,9.6,0,14.4c2.1,7.5-4.4,23.6,3.6,25.2c-0.4,36.4,10.7,61.3,21.6,86.3
		c4.1,12.7,7.9,25.7,18,32.4c0,1.2,0,2.4,0,3.6c7.8,11.5,16.8,40.7,36,28.8c6.3,0.3,11.2-0.8,14.4-3.6c30.9,8.8,51.4-22.5,79.1-28.8
		c-0.7,2.9-3.6,3.6-3.6,7.2c-2.9,0.7-3.6,3.6-7.2,3.6c-10.3,6.5-24.1,9.5-32.4,18c-1.2,0-2.4,0-3.6,0c-9.2,1.6-16.5,5-21.6,10.8
		c-5.8-1-6.2,3.4-10.8,3.6c-8.9-0.5-14.9,1.9-18,7.2c-1.2,0-2.4,0-3.6,0c-41.6,11.3-85.2,4.3-118.7-10.8
		c19.8,28.1,80.7,34.4,125.9,25.2c2.4,0,4.8,0,7.2,0c11.1,0.4,20-1.6,25.2-7.2c1.2,0,2.4,0,3.6,0c8.9,0.5,14.9-1.9,18-7.2
		c11.5,3.1,11.1-5.7,18-7.2c5.2-5.6,18.8-2.8,18-14.4c11.3,1.7,9.5-9.7,18-10.8c6.6-4.2,12.2-9.4,18-14.4
		c2.4,8.5-21.3,21.7-32.4,28.8c11.5,4.2,27.6-17.9,43.2-21.6c-1.1,7.3-9.7,7.1-10.8,14.4c-12.7,5.3-21.8,14.2-32.4,21.6
		c-11.9,7.3-25.2,13.1-36,21.6c-5.8-1-6.2,3.4-10.8,3.6c-16.1,3.1-27.5,10.9-46.8,10.8c13.8,7.7,47.3,4.2,57.6-3.6
		c2.4,0,4.8,0,7.2,0c8.9,0.5,14.9-1.9,18-7.2c1.2,0,2.4,0,3.6,0c6.7-0.5,12-2.4,14.4-7.2c5.8,1,6.2-3.4,10.8-3.6
		c14.1-7.4,27.9-15.3,36-28.8c13.2-4.8,19.5-16.5,25.2-28.8c5.7-9.9,13.4-17.7,18-28.8c3.4-2.6,5.4-6.5,7.2-10.8
		c-28.2-10.2-60.4-16.3-100.7-14.4c-0.8-5.2-10.7-1.3-10.8-7.2c4.2,0.6,6.4-0.8,7.2-3.6c-4.8,0-9.6,0-14.4,0c-2.4,0-4.8,0-7.2,0
		c-0.7-2.9-3.6-3.6-3.6-7.2c28.8,0,57.6,0,86.3,0c1.1,4.9,9,3,14.4,3.6c13.9-1.9,17.6,6.4,32.4,3.6c10.3-0.5,6.6-15,7.2-25.2
		c7.5-0.9,1-15.8,7.2-18c7.8,0.7,11.4-2.9,10.8-10.8c2.4,0,4.8,0,7.2,0c0,3.6,0,7.2,0,10.8c1.1,13.1-0.6,23.4-3.6,32.4
		c-3.2,13.5-4.5,29.1-10.8,39.6c-4.3,11.3-12.1,19-14.4,32.4c-5.1,9.3-12.2,16.6-18,25.2c-13.5,10.5-25.5,22.5-36,36
		c-18.9,15.9-41.3,28.2-68.3,36c-20.9,4.3-38.3,12-64.7,10.8c-6,0-12,0-18,0c-17.2,2.8-23.2-5.6-39.6-3.6
		c-5.4-5.3-15.8-5.8-25.2-7.2c-3-5.3-11.6-5.2-18-7.2c-5.8-7.4-17.3-9.1-25.2-14.4c-2.9-1.9-5.8-3.8-10.8-3.6
		c-3.2-6.3-8-11.1-14.4-14.4c-1.2,0-2.4,0-3.6,0c-8.1-11.1-17.7-20.7-28.8-28.8c-0.7-2.9-3.6-3.6-3.6-7.2c-5.4-5.4-6.4-15.1-14.4-18
		c-6.3-14.1-12.9-27.9-21.6-39.6c2.6-11-3.7-13.1-3.6-21.6c3.6,0,4.3,2.9,7.2,3.6c-15-45.8-1.9-114,0-151.1
		c17.3-7.2,29.6-49.2,50.4-64.7c0.2-2.2,0.5-4.3,3.6-3.6c6.3-3.2,11.1-8,14.4-14.4C100.5,70,101.7,70,102.9,70z M74.1,102.3
		c-4.2,9-14.3,12-14.4,25.2c-1.1,8.5-12.5,6.7-10.8,18c-8.9,18.7-17.8,37.3-18,64.7c-6,8.6-6,41.8,0,50.4c-0.9,15.2,3.3,25.5,7.2,36
		c6.1,29.9,15.4,56.5,46.8,61.2c-6.3-26.1-17.3-47.5-25.2-71.9c0-2.4,0-4.8,0-7.2c0-25.2,0-50.4,0-75.5c0-6,0-12,0-18
		c2.4,0,4.8,0,7.2,0c1.5-8.7-6.6-7.8-3.6-18c-1.5-8.7,6.6-7.8,3.6-18c7.8,0.6,1.6-12.8,3.6-18c10-8,12.8-23.2,18-36
		c1.2,0,2.4,0,3.6,0c-3.4-6.7,10.8-12,0-14.4C88.3,90.2,77.8,92.9,74.1,102.3z M81.3,134.7c-1.8-11.6,16.8-21.3,7.2-28.8
		C86.3,113.6,73.3,128.8,81.3,134.7z"/>
	<path class="st0" d="M268.3,98.7c1.3-7.1,24.6-24.9,14.4-10.8c-5.2,2-8.8,5.6-10.8,10.8C270.7,98.7,269.5,98.7,268.3,98.7z"/>
	<path class="st0" d="M185.6,91.5c2.6-15.8-7.2,2.9-7.2-7.2c7.3-6.3,7.1,2.7,14.4-3.6c-0.2,4.6-4.6,5-3.6,10.8
		C188,91.5,186.8,91.5,185.6,91.5z"/>
	<path class="st0" d="M178.4,325.4c8.5,8.3,11.5,22.1,18,32.4C186.3,351,182.5,338,178.4,325.4z"/>
	<path class="st0" d="M196.4,361.3c14.4,7.2,12.9,30.3,36,28.8C213.2,402,204.2,372.8,196.4,361.3z"/>
	<path class="st0" d="M257.5,397.3c5-5.7,12.4-9.2,21.6-10.8C274.1,392.3,266.7,395.7,257.5,397.3z"/>
	<path class="st0" d="M228.8,408.1c3.1-5.3,9-7.7,18-7.2C243.7,406.2,235.2,406.1,228.8,408.1z"/>
	<path class="st0" d="M232.4,422.5c-45.2,9.2-106.1,3-125.9-25.2c33.5,15.1,77.1,22.1,118.7,10.8c-14.7,6.9-31.5,11.7-54,10.8
		C184.5,427.2,213.1,420.1,232.4,422.5z"/>
	<path class="st0" d="M239.6,422.5c5.4-5.3,15.8-5.8,25.2-7.2C259.5,420.9,250.7,422.8,239.6,422.5z"/>
	<path class="st0" d="M268.3,415.3c3-5.3,11.6-5.2,18-7.2C283.3,413.4,277.3,415.8,268.3,415.3z"/>
	<path class="st0" d="M304.3,400.9c2.8-8,12.6-9,18-14.4C323.1,398.1,309.5,395.3,304.3,400.9z"/>
	<path class="st0" d="M358.3,382.9c1.1-7.3,9.7-7.1,10.8-14.4c-15.6,3.7-31.7,25.8-43.2,21.6c11-7,34.7-20.3,32.4-28.8
		c-5.8,5-11.4,10.2-18,14.4c7-13.4,22.9-17.9,32.4-28.8C378.4,355.3,370.5,380.6,358.3,382.9z"/>
	<path class="st0" d="M289.9,426.1c10.7-8.4,24.1-14.2,36-21.6C317.2,415,305.1,422.1,289.9,426.1z"/>
	<path class="st0" d="M289.9,436.9c-10.3,7.8-43.7,11.3-57.6,3.6c19.3,0.1,30.7-7.7,46.8-10.8c-3.1,5.3-9.1,7.7-18,7.2
		C267.8,447.9,278.2,432.7,289.9,436.9z"/>
	<path class="st0" d="M297.1,436.9c3-5.3,11.6-5.2,18-7.2C312,435,306,437.4,297.1,436.9z"/>
	<path class="st0" d="M318.7,429.7c2.4-4.8,7.7-6.7,14.4-7.2C330.7,427.3,325.4,429.2,318.7,429.7z"/>
	<path class="st0" d="M343.9,418.9c10-11.6,25.3-17.9,36-28.8C371.8,403.6,358,411.5,343.9,418.9z"/>
	<path class="st0" d="M441,257c2.9-0.7,3.6-3.6,7.2-3.6c-6.2,2.2,0.3,17.1-7.2,18c0-1.2,0-2.4,0-3.6C441,264.2,441,260.6,441,257z"
		/>
	<path class="st0" d="M383.4,418.9c10.5-13.5,22.5-25.5,36-36c0,1.2,0,2.4,0,3.6c-12.3,9.3-23.1,20.1-32.4,32.4
		C385.8,418.9,384.6,418.9,383.4,418.9z"/>
	<path class="st0" d="M146,447.7c-6.9-1.5-9-7.7-18-7.2c-0.7-2.9-3.6-3.6-3.6-7.2c7.9,5.3,19.4,7,25.2,14.4
		C148.4,447.7,147.2,447.7,146,447.7z"/>
	<path class="st0" d="M110.1,429.7c-1.1-7.3-9.7-7.1-10.8-14.4c6.3,3.2,11.1,8,14.4,14.4C112.5,429.7,111.3,429.7,110.1,429.7z"/>
	<path class="st0" d="M95.7,415.3c-11.8-6.2-17-19-28.8-25.2c0-1.2,0-2.4,0-3.6C78,394.6,87.6,404.2,95.7,415.3z"/>
	<path class="st0" d="M63.3,379.3c-4.7-1.3-5.7-6.3-10.8-7.2c0-1.2,0-2.4,0-3.6c-0.7-2.9-3.6-3.6-3.6-7.2
		C56.9,364.2,57.9,373.9,63.3,379.3z"/>
	<path class="st0" d="M38.1,296.6c14.1,17.1,11.2,51.1,39.6,54c1.4-14.7-18.6-38.9-18-64.7c7.9,24.5,18.9,45.8,25.2,71.9
		C53.5,353.1,44.2,326.4,38.1,296.6z"/>
	<path class="st0" d="M88.5,105.9c9.6,7.5-9,17.2-7.2,28.8C73.3,128.8,86.3,113.6,88.5,105.9z"/>
	<path class="st0" d="M110.1,77.2c4.7,4.8,4.7,13.4-3.6,14.4c-0.4-4,5.2-5.6,0-7.2c-0.8,4-4,5.6-7.2,7.2
		C102.9,86.7,105.2,80.7,110.1,77.2z"/>
	<path class="st0" d="M92.1,314.6c18.9,37.5,30.4,82.3,89.9,79.1c1.5-12.4-17.6-35.1-21.6-54c11.6,17.2,21.2,36.4,28.8,57.6
		C125.2,401.3,104.4,362.2,92.1,314.6z"/>
	<path class="st0" d="M153.2,321.8c4.8,2.4,6.7,7.7,7.2,14.4C155.6,333.8,153.7,328.5,153.2,321.8z"/>
	<path class="st0" d="M156.8,113.1c0.2-4.6,4.6-5,3.6-10.8c1.2,0,2.4,0,3.6,0c13.4-2.5,0.3,18.7-3.6,21.6
		C161.5,115.6,168.1,105.7,156.8,113.1z"/>
	<path class="st0" d="M164,98.7c1.7-4.3,3.8-8.2,7.2-10.8c-2.6,15.8,7.2-2.9,7.2,7.2C171.1,101.4,171.3,92.5,164,98.7z"/>
	<path class="st0" d="M257.5,95.1c12.6-6.6,22.3-35.2,36-28.8c-10.8,6.9-34.8,35.9-28.8,36c1.2,0,2.4,0,3.6,0
		c-2.2,7.4-5.6,13.6-18,10.8C251.9,106.3,258.1,104.1,257.5,95.1z"/>
	<path class="st0" d="M52.5,102.3c6.3-10.5,10.6-22.9,21.6-28.8c-0.9,5.1-5.9,6.1-7.2,10.8c2.6,9.8-7.1,7.2-7.2,14.4
		C56.1,98.7,55.4,101.7,52.5,102.3z"/>
	<path class="st0" d="M41.7,120.3c3.6-4.8,3.4-13.4,10.8-14.4C48.9,110.7,49.1,119.3,41.7,120.3z"/>
	<path class="st0" d="M66.9,84.3c1.2,0,2.4,0,3.6,0c0.8-4,4-5.6,7.2-7.2c-4.6,6.4-12.2,28.2-18,21.6C59.7,91.6,69.5,94.2,66.9,84.3z
		"/>
	<path class="st0" d="M74.1,102.3c3.7-9.5,14.3-12.1,18-21.6c10.8,2.4-3.4,7.7,0,14.4c-1.2,0-2.4,0-3.6,0
		C85.2,85.4,80.4,103.4,74.1,102.3z"/>
	<path class="st0" d="M268.3,98.7c1.2,0,2.4,0,3.6,0c2-5.2,5.6-8.8,10.8-10.8c-4.6,9.8-11.2,17.5-14.4,28.8c12,0,24,0,36,0
		c-0.6,7.8,12.8,1.6,18,3.6c11.7-2.1,16.7,2.5,25.2,3.6c13.4,3.7,36.4,3.4,32.4,14.4c0.8-2.8,3-4.2,7.2-3.6c1.2,0,2.4,0,3.6,0
		c-0.7,3.1,1.4,3.4,3.6,3.6c-1.6,5.2-3.2-0.4-7.2,0c-10,5.6,25.6,14.7,14.4,21.6c-1.2,0-2.4,0-3.6,0c-12.7-14.8-33.2-22-61.2-21.6
		c-0.4-7.9-15.3-1.5-21.6-3.6c-8.4,0-16.8,0-25.2,0c-5.2,2-18.6-4.2-18,3.6c-4.8,0-9.6,0-14.4,0c-1.9,2.9-3.8,5.8-3.6,10.8
		c1.5,8.7-6.6,7.8-3.6,18c-1.8,12.6-5.4,23.4-3.6,39.6c0.5,5.9,15-3.8,25.2,0c9.6,0,19.2,0,28.8,0c7.2,0,14.4,0,21.6,0
		c1.1,4.9,9,3,14.4,3.6c6,0,12,0,18,0c-0.6,7.8,12.8,1.6,18,3.6c1.2,0,2.4,0,3.6,0c-0.9,3.9-7.2,2.4-7.2,7.2
		c6.4-0.5,7.6,4.4,14.4,3.6c14,3.2,55.8,12.1,14.4,10.8c-0.4-7.9-15.3-1.5-21.6-3.6c-1.6-8-17.7-1.5-25.2-3.6c-1.1-4.9-9-3-14.4-3.6
		c-32.2-1-60.2,2.2-86.3,7.2c-5.8-2.6-5.8,17,0,14.4c5.8,25.4,1.7,60.6,39.6,54c-0.6,4.2-6.6,3-10.8,3.6c-3.6,0-7.2,0-10.8,0
		c4.4,20.8,17.7,32.6,25.2,50.4c-5.2,2-8.8,5.6-10.8,10.8c-22.8-6-20.7-36.9-36-50.4c-3.3-13.5-8.1-25.4-10.8-39.6
		c-2-5.2,4.2-18.6-3.6-18c-1.1-40.7-0.2-79.3,7.2-111.5c4.2-0.6,3.9-5.7,3.6-10.8c5.3-3,5.2-11.6,7.2-18c0-1.2,0-2.4,0-3.6
		c12.4,2.8,15.8-3.4,18-10.8C268.3,101.1,268.3,99.9,268.3,98.7z"/>
	<path class="st0" d="M38.1,134.7c-4.2,5.4-4.5,14.7-10.8,18C28.5,144.3,31,137.2,38.1,134.7z"/>
	<path class="st0" d="M74.1,102.3c6.3,1,11.1-16.9,14.4-7.2c-5.2,12.8-8,28-18,36c-2.4-13.2,7.8-13.8,7.2-25.2
		c-8.2,4.9-8.4,17.9-18,21.6C59.7,114.4,69.9,111.4,74.1,102.3z"/>
	<path class="st0" d="M401.4,159.9c11.3-6.9-24.4-16-14.4-21.6c4-0.4,5.6,5.2,7.2,0c-2.2-0.2-4.3-0.5-3.6-3.6
		c7.5,2.1,11.6,7.6,18,10.8c1.2,0,2.4,0,3.6,0c2.2,9.8,15,9,14.4,21.6c-11.1-2.5-6.9-2.5-18,0C404.6,166.3,403,163.1,401.4,159.9z
		 M415.8,163.5c2.7-9.1-13.7-16.9-14.4-10.8C408.8,153.8,408.5,162.4,415.8,163.5z"/>
	<path class="st0" d="M246.8,314.6c15.3,13.5,13.1,44.4,36,50.4c2-5.2,5.6-8.8,10.8-10.8c-0.7,2.9-3.6,3.6-3.6,7.2
		c7.5-2.1,11.6-7.6,18-10.8c-3.1,5.3-5.4,11.4-14.4,10.8c7.6,8.5,21.3-7.3,25.2-14.4c-2.9,0.7-3.6,3.6-7.2,3.6
		c4.5-8.7,14.7-11.6,25.2-14.4c-3.3,6.3-8.1,11.1-14.4,14.4c1.6,5.3,4.6-1.4,10.8,0c-3.6,4.8-3.4,13.4-10.8,14.4
		c0-3.6,2.9-4.3,3.6-7.2c-27.7,6.3-48.2,37.6-79.1,28.8c7.2-7.2,22.4-6.3,28.8-14.4C266.3,352.5,252.7,337.4,246.8,314.6z"/>
	<path class="st0" d="M243.2,134.7c-0.5-8.9,1.9-14.9,7.2-18C248.4,123.1,248.5,131.7,243.2,134.7z"/>
	<path class="st0" d="M59.7,167.1c-2.9-12.5,5.4-13.8,3.6-25.2c2.8,0.8,4.2,3,3.6,7.2c3,10.2-5.1,9.3-3.6,18
		C62.1,167.1,60.9,167.1,59.7,167.1z"/>
	<path class="st0" d="M149.6,123.9c0-1.2,0-2.4,0-3.6c2.2,0.2,4.3,0.5,3.6,3.6c0.8,6.8-4.1,7.9-3.6,14.4
		C140.7,137.8,148.6,126.1,149.6,123.9z"/>
	<path class="st0" d="M397.8,159.9c-17.4-11.4-41.5-16.1-64.7-21.6c1.2,0,2.4,0,3.6,0C364.7,137.9,385.1,145,397.8,159.9z"/>
	<path class="st0" d="M408.6,167.1c11.1-2.5,6.9-2.5,18,0c0.6-12.6-12.2-11.8-14.4-21.6c7.5,6.8,19,9.8,18,25.2
		C423.9,168.6,409.1,175,408.6,167.1z"/>
	<path class="st0" d="M387,134.7c5.2-8.5,19.3,4.4,21.6,10.8c-6.4-3.2-10.5-8.7-18-10.8C389.4,134.7,388.2,134.7,387,134.7z"/>
	<path class="st0" d="M27.3,156.3c-3.4,19.4-4.4,41.2-14.4,54C16.1,190.6,19.5,171.3,27.3,156.3z"/>
	<path class="st0" d="M253.9,149.1c-0.2-5,1.7-7.9,3.6-10.8c4.8,0,9.6,0,14.4,0C267.5,143.5,258.2,143.8,253.9,149.1z"/>
	<path class="st0" d="M401.4,152.7c0.6-6.1,17.1,1.7,14.4,10.8C408.5,162.4,408.8,153.8,401.4,152.7z"/>
	<path class="st0" d="M387,213.8c16.5,3.9,36.2,4.5,50.4,10.8c-0.4,12.9-40.7,19.8-39.6,10.8c41.4,1.3-0.3-7.6-14.4-10.8
		c0.8-5.2,10.7-1.3,10.8-7.2C390.1,218,387.8,216.6,387,213.8z"/>
	<path class="st0" d="M441,257c9-4.3,19.7-32.5,28.8-14.4c-4.3-0.5-8.2-6.4-10.8,0c0.7,7.8-2.9,11.4-10.8,10.8
		C444.6,253.4,443.9,256.3,441,257z"/>
	<path class="st0" d="M304.3,296.6c-12.4,1.6-20.2-1.4-28.8-3.6c1.5-8,17.7-1.5,25.2-3.6C300.7,293,303.6,293.7,304.3,296.6z"/>
	<path class="st0" d="M437.4,357.7c2.2-13.3,10.1-21.1,14.4-32.4C458,333,445,352,437.4,357.7z"/>
	<path class="st0" d="M329.5,307.4c40.3-1.9,72.6,4.2,100.7,14.4c-1.7,4.3-3.8,8.2-7.2,10.8c-20.7-34.4-96.8-13.5-140.3-25.2
		C298.3,307.4,313.9,307.4,329.5,307.4z"/>
	<path class="st0" d="M311.5,350.5c3.6,0,4.3-2.9,7.2-3.6c-3.9,7.1-17.6,22.9-25.2,14.4c9,0.6,11.3-5.5,14.4-10.8
		C309.1,350.5,310.3,350.5,311.5,350.5z"/>
	<path class="st0" d="M27.3,321.8c8.7,11.7,15.3,25.4,21.6,39.6c0,3.6,2.9,4.3,3.6,7.2C40.4,356.6,31.4,341.7,27.3,321.8z"/>
	<path class="st0" d="M387,418.9c9.3-12.3,20.1-23.1,32.4-32.4C410.1,398.8,399.3,409.6,387,418.9z"/>
	<path class="st0" d="M282.7,386.5c8.3-8.5,22.1-11.5,32.4-18C308.4,378.6,295.4,382.4,282.7,386.5z"/>
	<path class="st0" d="M52.5,372.1c5.1,0.9,6.1,5.9,10.8,7.2c0,3.6,2.9,4.3,3.6,7.2C60.5,383.3,55.8,378.5,52.5,372.1z"/>
	<path class="st0" d="M66.9,390.1c11.8,6.2,17,19,28.8,25.2c1.2,0,2.4,0,3.6,0c1.1,7.3,9.7,7.1,10.8,14.4
		C94.1,418.1,78.2,406.4,66.9,390.1z"/>
	<path class="st0" d="M113.6,429.7c5-0.2,7.9,1.7,10.8,3.6c0,3.6,2.9,4.3,3.6,7.2C123.3,436.9,114.7,437.1,113.6,429.7z"/>
	<path class="st0" d="M146,447.7c1.2,0,2.4,0,3.6,0c6.4,2,14.9,1.8,18,7.2C157.3,455.6,149.3,453.9,146,447.7z"/>
	<path class="st0" d="M250.3,465.6c26.4,1.2,43.9-6.5,64.7-10.8c-2.6,9.5-40.1,15-64.7,14.4C250.3,468,250.3,466.8,250.3,465.6z"/>
	<path class="st0" d="M322.3,116.7c10.2,0.6,24.7-3.1,25.2,7.2c-8.4-1.1-13.5-5.7-25.2-3.6C322.3,119.1,322.3,117.9,322.3,116.7z"/>
	<path class="st0" d="M135.2,192.3c1.1-12.1,1.8-24.6,7.2-32.4c0,2.4,0,4.8,0,7.2c2.9,12.5-5.4,13.8-3.6,25.2
		C137.6,192.3,136.4,192.3,135.2,192.3z"/>
	<path class="st0" d="M271.9,206.6c-10.2-3.8-24.7,5.9-25.2,0c-1.8-16.2,1.8-27,3.6-39.6c10.3,8.2-5.1,21.1,0,36
		c7.2,0,14.4,0,21.6,0C271.9,204.3,271.9,205.4,271.9,206.6z"/>
	<path class="st0" d="M351.1,228.2c7.4,2.1,23.6-4.4,25.2,3.6c-7.2,0-14.4,0-21.6,0c-2.4,0-4.8,0-7.2,0c0-1.2,0-2.4,0-3.6
		C348.7,228.2,349.9,228.2,351.1,228.2z"/>
	<path class="st0" d="M12.9,249.8c-2.6,11,6.2,10.6,3.6,21.6c-4.7,0-3.3-6.3-7.2-7.2c0-2.4,0-4.8,0-7.2c2.2-9.8-4.6-28.5,3.6-32.4
		C12.9,233,12.9,241.4,12.9,249.8z"/>
	<path class="st0" d="M469.8,282.2c-3.6,0-4.3,2.9-7.2,3.6c3-9,4.7-19.3,3.6-32.4c7.9,0.4,1.5,15.3,3.6,21.6
		C469.8,277.4,469.8,279.8,469.8,282.2z"/>
	<path class="st0" d="M441,271.4c-0.6,10.2,3.1,24.7-7.2,25.2c-14.8,2.8-18.5-5.5-32.4-3.6c0-1.2,0-2.4,0-3.6c4.8,0,9.6,0,14.4,0
		c1.2,0,2.4,0,3.6,0c3.2,2.8,8.1,3.9,14.4,3.6c3-4.2,4.7-9.6,3.6-18c0-2.4,0-4.8,0-7.2c1.2,0,2.4,0,3.6,0
		C441,269,441,270.2,441,271.4z"/>
	<path class="st0" d="M192.8,462c16.4-2,22.4,6.4,39.6,3.6c0,1.2,0,2.4,0,3.6c-6,0-12,0-18,0c-2.4,0-4.8,0-7.2,0
		c-1.1-4.9-9-3-14.4-3.6c-1.2,0-2.4,0-3.6,0C189.4,463.5,189.7,461.4,192.8,462z"/>
	<path class="st0" d="M250.3,231.8c26.2-5,54.1-8.2,86.3-7.2c0,1.2,0,2.4,0,3.6c-30.4-0.4-58.2,1.7-82.7,7.2
		c-2,23.6,8.3,34.8,10.8,54c15.3-6.3,40.5-2.7,61.2-3.6c19.2,0,38.4,0,57.6,0c4.2-0.6,6.4,0.8,7.2,3.6c-1.2,0-2.4,0-3.6,0
		c-28.8,0-57.6,0-86.3,0c-7.5,2.1-23.6-4.4-25.2,3.6c8.6,2.2,16.4,5.2,28.8,3.6c2.4,0,4.8,0,7.2,0c-0.4,7.9-15.3,1.5-21.6,3.6
		c-37.9,6.7-33.8-28.6-39.6-54C250.3,241.4,250.3,236.6,250.3,231.8z"/>
</g>
</svg>
